<svg width="44" height="16" viewBox="0 0 44 16" fill="none" xmlns="http://www.w3.org/2000/svg">
<path d="M10.8555 9.93945C10.6973 11.293 10.1963 12.3389 9.35254 13.0771C8.51465 13.8096 7.39844 14.1758 6.00391 14.1758C4.49219 14.1758 3.2793 13.6338 2.36523 12.5498C1.45703 11.4658 1.00293 10.0156 1.00293 8.19922V6.96875C1.00293 5.7793 1.21387 4.7334 1.63574 3.83105C2.06348 2.92871 2.66699 2.2373 3.44629 1.75684C4.22559 1.27051 5.12793 1.02734 6.15332 1.02734C7.5127 1.02734 8.60254 1.4082 9.42285 2.16992C10.2432 2.92578 10.7207 3.97461 10.8555 5.31641H9.15918C9.0127 4.29688 8.69336 3.55859 8.20117 3.10156C7.71484 2.64453 7.03223 2.41602 6.15332 2.41602C5.0752 2.41602 4.22852 2.81445 3.61328 3.61133C3.00391 4.4082 2.69922 5.54199 2.69922 7.0127V8.25195C2.69922 9.64062 2.98926 10.7451 3.56934 11.5654C4.14941 12.3857 4.96094 12.7959 6.00391 12.7959C6.94141 12.7959 7.65918 12.585 8.15723 12.1631C8.66113 11.7354 8.99512 10.9941 9.15918 9.93945H10.8555ZM23.002 14H21.3057L14.8633 4.13867V14H13.167V1.20312H14.8633L21.3232 11.1084V1.20312H23.002V14ZM27.6865 8.99023V14H25.999V1.20312H30.7188C32.1191 1.20312 33.2148 1.56055 34.0059 2.27539C34.8027 2.99023 35.2012 3.93652 35.2012 5.11426C35.2012 6.35645 34.8115 7.31445 34.0322 7.98828C33.2588 8.65625 32.1484 8.99023 30.7012 8.99023H27.6865ZM27.6865 7.61035H30.7188C31.6211 7.61035 32.3125 7.39941 32.793 6.97754C33.2734 6.5498 33.5137 5.93457 33.5137 5.13184C33.5137 4.37012 33.2734 3.76074 32.793 3.30371C32.3125 2.84668 31.6533 2.60938 30.8154 2.5918H27.6865V7.61035ZM40.958 1.20312H42.6543V10.2646C42.6543 11.4893 42.2852 12.4473 41.5469 13.1387C40.8145 13.8301 39.8359 14.1758 38.6113 14.1758C37.3398 14.1758 36.3496 13.8506 35.6406 13.2002C34.9316 12.5498 34.5771 11.6387 34.5771 10.4668H36.2646C36.2646 11.1992 36.4639 11.7705 36.8623 12.1807C37.2666 12.5908 37.8496 12.7959 38.6113 12.7959C39.3086 12.7959 39.8711 12.5762 40.2988 12.1367C40.7324 11.6973 40.9521 11.082 40.958 10.291V1.20312Z" fill="#9C9B9B"/>
<path d="M10.8555 9.93945L11.8487 10.0555L11.9792 8.93945H10.8555V9.93945ZM9.35254 13.0771L10.0107 13.8301L10.011 13.8297L9.35254 13.0771ZM2.36523 12.5498L1.59871 13.192L1.60075 13.1944L2.36523 12.5498ZM1.63574 3.83105L0.732111 3.40271L0.72986 3.40753L1.63574 3.83105ZM3.44629 1.75684L3.97111 2.60807L3.97571 2.60519L3.44629 1.75684ZM9.42285 2.16992L8.7424 2.90272L8.74523 2.90533L9.42285 2.16992ZM10.8555 5.31641V6.31641H11.9609L11.8505 5.21647L10.8555 5.31641ZM9.15918 5.31641L8.16934 5.45862L8.29259 6.31641H9.15918V5.31641ZM8.20117 3.10156L7.51634 3.83029L7.52072 3.83436L8.20117 3.10156ZM3.61328 3.61133L2.82173 3.00021L2.81892 3.00388L3.61328 3.61133ZM8.15723 12.1631L8.80357 12.9261L8.80436 12.9255L8.15723 12.1631ZM9.15918 9.93945V8.93945H8.30271L8.17106 9.78575L9.15918 9.93945ZM9.86223 9.82336C9.7263 10.9863 9.31282 11.7831 8.69403 12.3246L10.011 13.8297C11.0798 12.8946 11.6682 11.5997 11.8487 10.0555L9.86223 9.82336ZM8.69441 12.3242C8.0814 12.8601 7.21976 13.1758 6.00391 13.1758V15.1758C7.57711 15.1758 8.94789 14.7591 10.0107 13.8301L8.69441 12.3242ZM6.00391 13.1758C4.7647 13.1758 3.8399 12.7474 3.12972 11.9052L1.60075 13.1944C2.7187 14.5202 4.21967 15.1758 6.00391 15.1758V13.1758ZM3.13175 11.9076C2.41301 11.0497 2.00293 9.84892 2.00293 8.19922H0.00292969C0.00292969 10.1823 0.501049 11.8819 1.59871 13.192L3.13175 11.9076ZM2.00293 8.19922V6.96875H0.00292969V8.19922H2.00293ZM2.00293 6.96875C2.00293 5.89762 2.19261 5.00109 2.54162 4.25458L0.72986 3.40753C0.235128 4.4657 0.00292969 5.66097 0.00292969 6.96875H2.00293ZM2.53936 4.25939C2.89215 3.51515 3.37115 2.97795 3.9711 2.60805L2.92148 0.905617C1.96283 1.49666 1.2348 2.34227 0.732124 3.40272L2.53936 4.25939ZM3.97571 2.60519C4.5782 2.2292 5.2927 2.02734 6.15332 2.02734V0.0273438C4.96316 0.0273438 3.87297 0.311813 2.91686 0.90848L3.97571 2.60519ZM6.15332 2.02734C7.31733 2.02734 8.145 2.34798 8.7424 2.90272L10.1033 1.43713C9.06008 0.468424 7.70806 0.0273438 6.15332 0.0273438V2.02734ZM8.74523 2.90533C9.34965 3.46227 9.74481 4.26468 9.86047 5.41634L11.8505 5.21647C11.6966 3.68454 11.1367 2.3893 10.1005 1.43451L8.74523 2.90533ZM10.8555 4.31641H9.15918V6.31641H10.8555V4.31641ZM10.149 5.17419C9.9865 4.04307 9.61032 3.04541 8.88162 2.36877L7.52072 3.83436C7.7764 4.07177 8.03889 4.55068 8.16934 5.45862L10.149 5.17419ZM8.88599 2.37285C8.16153 1.69203 7.20379 1.41602 6.15332 1.41602V3.41602C6.86066 3.41602 7.26815 3.59703 7.51636 3.83028L8.88599 2.37285ZM6.15332 1.41602C4.79076 1.41602 3.64134 1.93864 2.82174 3.00021L4.40482 4.22244C4.8157 3.69026 5.35963 3.41602 6.15332 3.41602V1.41602ZM2.81892 3.00388C2.02673 4.03982 1.69922 5.42078 1.69922 7.0127H3.69922C3.69922 5.6632 3.98108 4.77658 4.40764 4.21878L2.81892 3.00388ZM1.69922 7.0127V8.25195H3.69922V7.0127H1.69922ZM1.69922 8.25195C1.69922 9.77046 2.01553 11.1001 2.75285 12.1428L4.38582 10.9881C3.96298 10.3901 3.69922 9.51079 3.69922 8.25195H1.69922ZM2.75285 12.1428C3.52867 13.2399 4.65097 13.7959 6.00391 13.7959V11.7959C5.2709 11.7959 4.77016 11.5316 4.38582 10.9881L2.75285 12.1428ZM6.00391 13.7959C7.07675 13.7959 8.06027 13.5558 8.80357 12.9261L7.51088 11.4C7.25809 11.6142 6.80606 11.7959 6.00391 11.7959V13.7959ZM8.80436 12.9255C9.57478 12.2715 9.96763 11.2481 10.1473 10.0932L8.17106 9.78575C8.0226 10.7401 7.74748 11.1992 7.51009 11.4007L8.80436 12.9255ZM9.15918 10.9395H10.8555V8.93945H9.15918V10.9395ZM23.002 14V15H24.002V14H23.002ZM21.3057 14L20.4685 14.5469L20.7645 15H21.3057V14ZM14.8633 4.13867L15.7005 3.59174L13.8633 0.779581V4.13867H14.8633ZM14.8633 14V15H15.8633V14H14.8633ZM13.167 14H12.167V15H13.167V14ZM13.167 1.20312V0.203125H12.167V1.20312H13.167ZM14.8633 1.20312L15.7009 0.656857L15.405 0.203125H14.8633V1.20312ZM21.3232 11.1084L20.4856 11.6547L22.3232 14.4723V11.1084H21.3232ZM21.3232 1.20312V0.203125H20.3232V1.20312H21.3232ZM23.002 1.20312H24.002V0.203125H23.002V1.20312ZM23.002 13H21.3057V15H23.002V13ZM22.1428 13.4531L15.7005 3.59174L14.0261 4.6856L20.4685 14.5469L22.1428 13.4531ZM13.8633 4.13867V14H15.8633V4.13867H13.8633ZM14.8633 13H13.167V15H14.8633V13ZM14.167 14V1.20312H12.167V14H14.167ZM13.167 2.20312H14.8633V0.203125H13.167V2.20312ZM14.0257 1.74939L20.4856 11.6547L22.1609 10.5621L15.7009 0.656857L14.0257 1.74939ZM22.3232 11.1084V1.20312H20.3232V11.1084H22.3232ZM21.3232 2.20312H23.002V0.203125H21.3232V2.20312ZM22.002 1.20312V14H24.002V1.20312H22.002ZM27.6865 8.99023V7.99023H26.6865V8.99023H27.6865ZM27.6865 14V15H28.6865V14H27.6865ZM25.999 14H24.999V15H25.999V14ZM25.999 1.20312V0.203125H24.999V1.20312H25.999ZM34.0059 2.27539L33.3354 3.01732L33.3381 3.01977L34.0059 2.27539ZM34.0322 7.98828L34.6858 8.7451L34.6863 8.74472L34.0322 7.98828ZM27.6865 7.61035H26.6865V8.61035H27.6865V7.61035ZM32.793 6.97754L33.4528 7.729L33.4579 7.72445L32.793 6.97754ZM30.8154 2.5918L30.8364 1.59202L30.8259 1.5918H30.8154V2.5918ZM27.6865 2.5918V1.5918H26.6865V2.5918H27.6865ZM26.6865 8.99023V14H28.6865V8.99023H26.6865ZM27.6865 13H25.999V15H27.6865V13ZM26.999 14V1.20312H24.999V14H26.999ZM25.999 2.20312H30.7188V0.203125H25.999V2.20312ZM30.7188 2.20312C31.9508 2.20312 32.7796 2.5151 33.3354 3.01732L34.6763 1.53346C33.65 0.605996 32.2874 0.203125 30.7188 0.203125V2.20312ZM33.3381 3.01977C33.901 3.52468 34.2012 4.18876 34.2012 5.11426H36.2012C36.2012 3.68428 35.7045 2.45578 34.6736 1.53101L33.3381 3.01977ZM34.2012 5.11426C34.2012 6.13143 33.8927 6.78693 33.3782 7.23184L34.6863 8.74472C35.7303 7.84198 36.2012 6.58146 36.2012 5.11426H34.2012ZM33.3786 7.23146C32.8497 7.68821 32.0072 7.99023 30.7012 7.99023V9.99023C32.2896 9.99023 33.6678 9.62429 34.6858 8.7451L33.3786 7.23146ZM30.7012 7.99023H27.6865V9.99023H30.7012V7.99023ZM27.6865 8.61035H30.7188V6.61035H27.6865V8.61035ZM30.7188 8.61035C31.7648 8.61035 32.727 8.36621 33.4528 7.72898L32.1332 6.2261C31.898 6.43262 31.4774 6.61035 30.7188 6.61035V8.61035ZM33.4579 7.72445C34.2025 7.06159 34.5137 6.14376 34.5137 5.13184H32.5137C32.5137 5.72538 32.3444 6.03802 32.128 6.23063L33.4579 7.72445ZM34.5137 5.13184C34.5137 4.14076 34.1912 3.25359 33.4822 2.57915L32.1038 4.02827C32.3557 4.26789 32.5137 4.59947 32.5137 5.13184H34.5137ZM33.4822 2.57915C32.777 1.90841 31.8553 1.61339 30.8364 1.59202L30.7945 3.59158C31.4513 3.60536 31.848 3.78495 32.1038 4.02827L33.4822 2.57915ZM30.8154 1.5918H27.6865V3.5918H30.8154V1.5918ZM26.6865 2.5918V7.61035H28.6865V2.5918H26.6865ZM40.958 1.20312V0.203125H39.958V1.20312H40.958ZM42.6543 1.20312H43.6543V0.203125H42.6543V1.20312ZM41.5469 13.1387L40.8633 12.4088L40.8604 12.4115L41.5469 13.1387ZM34.5771 10.4668V9.4668H33.5771V10.4668H34.5771ZM36.2646 10.4668H37.2646V9.4668H36.2646V10.4668ZM36.8623 12.1807L36.145 12.8775L36.1501 12.8827L36.8623 12.1807ZM40.2988 12.1367L39.587 11.4344L39.5822 11.4392L40.2988 12.1367ZM40.958 10.291L41.958 10.2984V10.291H40.958ZM40.958 2.20312H42.6543V0.203125H40.958V2.20312ZM41.6543 1.20312V10.2646H43.6543V1.20312H41.6543ZM41.6543 10.2646C41.6543 11.2755 41.358 11.9455 40.8633 12.4088L42.2304 13.8686C43.2123 12.949 43.6543 11.703 43.6543 10.2646H41.6543ZM40.8604 12.4115C40.352 12.8914 39.6389 13.1758 38.6113 13.1758V15.1758C40.033 15.1758 41.2769 14.7687 42.2333 13.8658L40.8604 12.4115ZM38.6113 13.1758C37.5078 13.1758 36.7883 12.896 36.3166 12.4633L34.9646 13.9371C35.9109 14.8052 37.1719 15.1758 38.6113 15.1758V13.1758ZM36.3166 12.4633C35.8582 12.0427 35.5771 11.4245 35.5771 10.4668H33.5771C33.5771 11.8529 34.0051 13.0569 34.9646 13.9371L36.3166 12.4633ZM34.5771 11.4668H36.2646V9.4668H34.5771V11.4668ZM35.2646 10.4668C35.2646 11.3832 35.5183 12.2323 36.145 12.8774L37.5796 11.4839C37.4094 11.3087 37.2646 11.0152 37.2646 10.4668H35.2646ZM36.1501 12.8827C36.7971 13.5391 37.6716 13.7959 38.6113 13.7959V11.7959C38.0276 11.7959 37.7361 11.6426 37.5745 11.4787L36.1501 12.8827ZM38.6113 13.7959C39.5381 13.7959 40.373 13.4942 41.0154 12.8342L39.5822 11.4392C39.3692 11.6581 39.0791 11.7959 38.6113 11.7959V13.7959ZM41.0107 12.8391C41.6745 12.1662 41.9508 11.2734 41.958 10.2984L39.958 10.2836C39.9535 10.8907 39.7903 11.2283 39.587 11.4344L41.0107 12.8391ZM41.958 10.291V1.20312H39.958V10.291H41.958Z" fill="#9C9B9B"/>
</svg>
