<svg id="Capa_1" enable-background="new 0 0 512 512" height="512" viewBox="0 0 512 512" width="512" xmlns="http://www.w3.org/2000/svg"><g><path d="m241.029 0h-30c0 66.192 54.719 120 121 120v-30c-50.178 0-91-40.374-91-90z" fill="#9C9B9B"/><path d="m362.029 60v-30h-30c-16.804 0-31-13.738-31-30h-30c0 33.424 28.112 60 61 60z" fill="#9C9B9B"/><path d="m482.029 104.449v-14.449c0-33.084-26.916-60-60-60h-30v30h30c16.542 0 30 13.458 30 30h-88.896l-11.556 151h-80.548v-106.2l-120 91v-90.85l-151 113.562v263.488h511.942zm-241 90.751v45.8h-60.395zm-120-.15v45.95h-61.099zm30 286.95h-61v-121h61zm182.104 0h-152.104v-151h-121v151h-30v-211h319.252zm57.792-362h62.166l2.204 30h-66.666zm-27.704 362 23.112-302h71.166l22.188 302z" fill="#9C9B9B"/><path d="m301.029 331h-90v90h90zm-30 60h-30v-30h30z" fill="#9C9B9B"/></g></svg>