<?xml version="1.0" encoding="UTF-8" standalone="no"?>
<!DOCTYPE svg PUBLIC "-//W3C//DTD SVG 1.1//EN" "http://www.w3.org/Graphics/SVG/1.1/DTD/svg11.dtd">
<svg version="1.1" xmlns="http://www.w3.org/2000/svg" xmlns:xlink="http://www.w3.org/1999/xlink" preserveAspectRatio="xMidYMid meet" viewBox="0 0 640 640" width="640" height="640"><defs><path d="M434.25 144.75C434.25 64.95 369.33 0 289.5 0C209.69 0 144.75 64.95 144.75 144.75C144.75 150.97 144.75 182.06 144.75 238.02L217.13 238.02C217.13 182.06 217.13 150.97 217.13 144.75C217.12 104.81 249.58 72.37 289.5 72.37C329.4 72.37 361.88 104.82 361.88 144.75C361.88 150.97 361.88 182.06 361.88 238.02L434.25 238.02C434.25 182.06 434.25 150.97 434.25 144.75Z" id="a57lM0sed"></path><path d="M72.37 506.62C72.37 546.59 104.78 579 144.75 579C173.7 579 405.3 579 434.25 579C474.22 579 506.62 546.59 506.62 506.62C506.62 488.53 506.62 343.78 506.62 325.69C506.62 285.72 474.22 253.31 434.25 253.31C405.3 253.31 173.7 253.31 144.75 253.31C104.78 253.31 72.37 285.72 72.37 325.69C72.37 361.87 72.37 488.53 72.37 506.62ZM325.69 398.06C325.69 411.31 318.21 422.41 307.59 428.7C307.59 434.68 307.59 482.55 307.59 488.53C307.59 498.53 299.5 506.62 289.5 506.62C279.49 506.62 271.4 498.53 271.4 488.53C271.4 482.55 271.4 434.68 271.4 428.7C260.78 422.41 253.31 411.31 253.31 398.06C253.31 378.06 269.51 361.88 289.5 361.88C309.48 361.88 325.69 378.06 325.69 398.06Z" id="dVsonHOdp"></path></defs><g><g><g><use xlink:href="#a57lM0sed" opacity="1" fill="#9c9b9b" fill-opacity="1"></use><g><use xlink:href="#a57lM0sed" opacity="1" fill-opacity="0" stroke="#000000" stroke-width="1" stroke-opacity="0"></use></g></g><g><use xlink:href="#dVsonHOdp" opacity="1" fill="#9c9b9b" fill-opacity="1"></use><g><use xlink:href="#dVsonHOdp" opacity="1" fill-opacity="0" stroke="#000000" stroke-width="1" stroke-opacity="0"></use></g></g></g></g></svg>